<svg width="23" height="22" viewBox="0 0 23 22" fill="none" xmlns="http://www.w3.org/2000/svg">
<path d="M14.9945 16.804C13.4175 16.804 11.9411 16.1866 10.8457 15.1387" stroke="#828282" stroke-width="2" stroke-linecap="round" stroke-linejoin="round"/>
<path d="M6.14938 6.85614C4.78339 5.56426 2.951 4.80418 0.994629 4.80418" stroke="#828282" stroke-width="2" stroke-linecap="round" stroke-linejoin="round"/>
<path d="M21.6378 17.8481C22.2645 17.4564 22.2645 16.5437 21.6378 16.1521L16.5246 12.9563C15.8586 12.54 14.9946 13.0189 14.9946 13.8043V20.1958C14.9946 20.9813 15.8586 21.4601 16.5246 21.0438L21.6378 17.8481Z" fill="#828282"/>
<path d="M14.9946 4.80418V4.80418C12.5724 4.80418 10.3878 6.26061 9.45617 8.49649L7.91771 12.1888C6.75318 14.9837 4.02239 16.8042 0.994629 16.8042V16.8042" stroke="#828282" stroke-width="2" stroke-linecap="round" stroke-linejoin="round"/>
<path d="M20.6378 5.84807C21.2645 5.4564 21.2645 4.54374 20.6378 4.15207L15.5246 0.956319C14.8586 0.540039 13.9946 1.01888 13.9946 1.80432V8.19582C13.9946 8.98126 14.8586 9.4601 15.5246 9.04382L20.6378 5.84807Z" fill="#828282"/>
</svg>
